<svg width="25" height="24" viewBox="0 0 25 24" fill="none" xmlns="http://www.w3.org/2000/svg">
<path d="M20.7495 6.37536L20.1096 6.85557L20.1102 6.85631L20.7495 6.37536ZM14.0342 2.54966L14.1459 1.75749L14.1097 1.75239L14.0732 1.75061L14.0342 2.54966ZM12.9902 2.50001L12.9894 3.30001H12.9902V2.50001ZM6.04513 5.3024L6.60613 5.87273L6.60646 5.8724L6.04513 5.3024ZM3.50856 10.1128L4.29515 10.2587L4.29522 10.2583L3.50856 10.1128ZM3.99039 15.1439L4.73956 14.8632L4.73888 14.8614L3.99039 15.1439ZM3.93778 16.1948L3.22392 15.8337L3.22356 15.8344L3.93778 16.1948ZM2.37873 19.3723L3.09541 19.7278L3.09779 19.7229L2.37873 19.3723ZM2.42027 19.9239L2.99031 19.3626L2.99021 19.3625L2.42027 19.9239ZM2.91318 20.0288L2.70214 19.2571L2.69572 19.2589L2.91318 20.0288ZM6.21128 19.1296L5.9923 18.3601L5.98898 18.3611L6.21128 19.1296ZM7.16942 19.3116L6.69257 19.954L6.69321 19.9544L7.16942 19.3116ZM12.3256 21.2424L12.3814 20.4443H12.3814L12.3256 21.2424ZM19.2874 19.0496L18.7809 18.4303L18.7805 18.4306L19.2874 19.0496ZM22.483 13.671L21.6959 13.528L21.6957 13.5289L22.483 13.671ZM21.3893 5.89516C19.5651 3.46441 17.1064 2.17497 14.1459 1.75749L13.9225 3.34182C16.517 3.70769 18.5721 4.80691 20.1096 6.85557L21.3893 5.89516ZM14.0732 1.75061C13.8434 1.73939 13.3957 1.70001 12.9902 1.70001V3.30001C13.3491 3.30001 13.6601 3.33234 13.9952 3.3487L14.0732 1.75061ZM12.9911 1.70001C10.1492 1.69704 7.60051 2.64789 5.4838 4.73239L6.60646 5.8724C8.40537 4.10086 10.5421 3.29745 12.9894 3.30001L12.9911 1.70001ZM5.48412 4.73207C4.03031 6.16212 3.10014 7.9221 2.7219 9.96732L4.29522 10.2583C4.61481 8.53021 5.39045 7.06854 6.60613 5.87273L5.48412 4.73207ZM2.72197 9.96694C2.37189 11.8547 2.58286 13.6797 3.24191 15.4263L4.73888 14.8614C4.17395 13.3643 4.00277 11.8353 4.29515 10.2587L2.72197 9.96694ZM3.24124 15.4245C3.30483 15.5943 3.29842 15.6864 3.22392 15.8337L4.65164 16.5559C4.93713 15.9915 4.95288 15.4327 4.73955 14.8632L3.24124 15.4245ZM3.22356 15.8344C2.68861 16.8945 2.17455 17.9658 1.65967 19.0216L3.09779 19.7229C3.61859 18.6549 4.12359 17.6023 4.652 16.5552L3.22356 15.8344ZM1.66207 19.0168C1.56828 19.2058 1.48227 19.4558 1.50423 19.7423C1.52797 20.0522 1.66938 20.3016 1.85033 20.4853L2.99021 19.3625C3.00452 19.3771 3.03101 19.408 3.05502 19.4569C3.07999 19.5079 3.09527 19.5642 3.09955 19.6201C3.10766 19.7259 3.07288 19.7732 3.09539 19.7278L1.66207 19.0168ZM1.85023 20.4852C2.03017 20.668 2.25422 20.7914 2.50842 20.8371C2.74838 20.8803 2.96507 20.8454 3.13065 20.7986L2.69572 19.2589C2.67576 19.2645 2.71661 19.2489 2.7918 19.2624C2.83094 19.2695 2.87166 19.2831 2.91008 19.3038C2.94802 19.3243 2.97445 19.3465 2.99031 19.3626L1.85023 20.4852ZM3.12421 20.8004C4.20447 20.505 5.33112 20.2169 6.43357 19.8981L5.98898 18.3611C4.89824 18.6766 3.82063 18.9512 2.70215 19.2571L3.12421 20.8004ZM6.43025 19.899C6.51168 19.8758 6.54791 19.8813 6.56142 19.884C6.57741 19.8872 6.61776 19.8984 6.69257 19.954L7.64626 18.6693C7.42753 18.5069 7.17297 18.3747 6.87535 18.3151C6.57525 18.2551 6.27918 18.2785 5.9923 18.3601L6.43025 19.899ZM6.69321 19.9544C8.3555 21.1859 10.2171 21.897 12.2698 22.0404L12.3814 20.4443C10.6459 20.323 9.07374 19.7267 7.64562 18.6688L6.69321 19.9544ZM12.2698 22.0404C15.0287 22.2333 17.5748 21.4859 19.7942 19.6685L18.7805 18.4306C16.8905 19.9783 14.7511 20.61 12.3814 20.4443L12.2698 22.0404ZM19.7938 19.6689C21.6197 18.1757 22.8359 16.2198 23.2703 13.8131L21.6957 13.5289C21.3326 15.5409 20.3279 17.1652 18.7809 18.4303L19.7938 19.6689ZM23.2701 13.8139C23.8038 10.8753 23.1259 8.20345 21.3888 5.89441L20.1102 6.85631C21.5853 8.81706 22.148 11.0384 21.6959 13.528L23.2701 13.8139Z" fill="#AEB2B1"/>
<path d="M13.0181 17.6421C12.4327 17.6421 11.8445 17.5538 11.2591 17.3743C10.6736 17.1976 10.1487 16.9077 9.68965 16.5073C9.23064 16.107 8.85684 15.5769 8.56824 14.917C8.27964 14.2571 8.13672 13.4453 8.13672 12.4817V8.81779C8.13672 8.20483 8.63146 7.70508 9.24438 7.70508C9.85456 7.70508 10.352 8.20207 10.352 8.81779V12.0869C10.352 12.675 10.4208 13.183 10.5554 13.611C10.6901 14.039 10.8798 14.3868 11.1161 14.663C11.3525 14.9363 11.6356 15.1406 11.9654 15.2731C12.2925 15.4057 12.6443 15.4719 13.0181 15.4719C13.3919 15.4719 13.741 15.4057 14.0653 15.2731C14.3897 15.1406 14.6728 14.9391 14.9146 14.663C15.1565 14.3896 15.3462 14.039 15.4836 13.611C15.621 13.183 15.687 12.6777 15.687 12.0869V8.81779C15.687 8.20483 16.1817 7.70508 16.7946 7.70508H16.8084C17.4186 7.70508 17.916 8.20207 17.916 8.81779V12.4817C17.916 13.4453 17.7731 14.2598 17.4845 14.917C17.1959 15.5769 16.8194 16.107 16.3549 16.5073C15.8904 16.9077 15.3654 17.1976 14.7855 17.3743C14.2055 17.551 13.6146 17.6421 13.0181 17.6421Z" fill="#AEB2B1"/>
</svg>
