<svg width="20" height="20" viewBox="0 0 20 20" fill="none" xmlns="http://www.w3.org/2000/svg">
<g clip-path="url(#clip0_13253_4193)">
<path d="M4.73362 9.46093C4.68778 9.61659 4.68779 9.79057 4.68779 9.97371C4.68779 10.0287 4.68779 10.0836 4.68779 10.1385C4.68779 10.4407 4.86195 10.8161 5.16445 11.1092C5.45778 11.4022 5.80611 11.567 6.09944 11.567C6.23694 11.567 6.55779 11.6037 6.57613 12.0524C6.59446 12.6933 7.31861 13.4076 7.96027 13.4259C8.25361 13.4259 8.43694 13.609 8.44611 13.902C8.45527 14.3049 8.64778 14.6437 9.05111 14.9825C9.48194 15.3305 9.97696 15.4313 10.5361 15.2665C10.6003 15.2481 10.6644 15.239 10.7194 15.239C10.9119 15.239 11.0678 15.3488 11.1595 15.5594C11.297 15.8616 11.4619 16.2096 11.6544 16.5392C11.8744 16.9421 12.1953 17.2901 12.4978 17.6381C12.837 18.0227 13.2036 18.4256 13.6528 18.7094C14.2211 19.0757 14.8811 19.2223 15.6603 19.149C16.6136 19.0574 17.4386 18.6362 18.1261 17.8853C18.7586 17.1986 19.0978 16.4477 19.1528 15.5869C19.1986 14.9276 19.0886 14.3599 18.8228 13.8471C18.6394 13.4808 18.3461 13.1878 18.0895 12.9406C17.6861 12.5193 17.2736 12.1989 16.7786 11.8234C16.522 11.622 16.2195 11.4846 15.9078 11.3381C15.7703 11.274 15.6328 11.2099 15.4953 11.1367C15.2569 11.0085 15.1744 10.8253 15.2386 10.5872C15.2936 10.4041 15.2936 10.2026 15.2936 9.98288V9.86383C15.2936 9.56165 15.1103 9.19539 14.8169 8.90236C14.5328 8.6185 14.1844 8.45368 13.8911 8.45368H13.882C13.7353 8.45368 13.6161 8.40788 13.5336 8.31631C13.4786 8.25221 13.4053 8.15148 13.4145 7.96834C13.4236 7.69363 13.2495 7.3365 12.9653 7.04347C12.672 6.75045 12.3145 6.57647 12.0395 6.58563C11.7645 6.58563 11.572 6.42082 11.5628 6.14611C11.5353 5.60585 11.2694 5.20294 10.7194 4.88245C10.3711 4.67184 9.99527 4.62608 9.56444 4.73596C9.42694 4.77259 8.98695 4.88243 8.80362 4.35133C8.70279 4.0583 8.56529 3.78358 8.40946 3.53634C7.98779 2.8862 7.46528 2.26356 6.85111 1.68668C6.31028 1.17389 5.69611 0.899192 4.98111 0.844251C4.21111 0.789309 3.50529 0.954132 2.81779 1.35704C1.99279 1.84236 1.40612 2.53825 1.06695 3.43563C0.746116 4.29638 0.755282 5.15713 1.09445 5.99957C1.23195 6.32922 1.46112 6.60395 1.67195 6.82372C2.64362 7.8493 3.49612 8.47198 4.44945 8.83826C4.72445 8.94814 4.83446 9.16788 4.74279 9.44259L4.73362 9.46093ZM14.6611 12.0706C15.3578 12.2904 15.9995 12.6658 16.687 13.2702C17.0445 13.5815 17.4478 13.9387 17.7503 14.3782C18.3186 15.2115 18.0711 16.3286 17.5395 17.0063C17.072 17.6015 16.4945 17.9494 15.8253 18.0502C15.7153 18.0685 15.6053 18.0776 15.4953 18.0776C14.8994 18.0776 14.3586 17.8395 13.8911 17.3634C13.4328 16.8964 12.837 16.2646 12.397 15.4954C12.2778 15.2939 12.2045 15.0833 12.1403 14.8727C12.1128 14.7811 12.0761 14.6895 12.0486 14.598C11.9478 14.3324 12.1311 14.1676 12.1861 14.1127L12.2044 14.0943C12.4336 13.8654 12.672 13.6273 12.9011 13.3984L13.4145 12.8856C13.6345 12.6659 13.8636 12.4369 14.0836 12.208C14.2945 11.9882 14.5236 12.0249 14.6703 12.0706H14.6611ZM13.4145 9.49753C13.6345 9.49753 13.8361 9.58913 13.992 9.75395C14.3036 10.0836 14.2945 10.5506 13.9736 10.8802C13.607 11.2465 13.2403 11.622 12.8736 11.9883L11.9753 12.8856C11.6086 13.2519 11.242 13.6182 10.8753 13.9753C10.7103 14.1401 10.5086 14.2134 10.3161 14.2134C10.1236 14.2134 9.91278 14.131 9.74778 13.9661C9.42695 13.6456 9.41778 13.1512 9.73861 12.8307C10.7378 11.8234 11.7828 10.7795 12.8369 9.73562C12.9928 9.57996 13.2036 9.48838 13.4236 9.49753H13.4145ZM10.7561 8.06905C10.8661 7.95001 10.9853 7.8676 11.0953 7.78519C11.4436 7.56542 11.8195 7.60203 12.1036 7.8859C12.3878 8.16976 12.4245 8.56355 12.1953 8.8932C12.1128 9.01224 12.0303 9.12209 11.9386 9.2045C11.5995 9.55247 11.2511 9.90044 10.9028 10.2392L10.2061 10.9352C9.86695 11.274 9.53695 11.6037 9.19778 11.9425C9.11528 12.0249 9.00528 12.1073 8.88612 12.1988C8.73945 12.2996 8.58362 12.3454 8.42778 12.3454C8.22612 12.3454 8.03361 12.263 7.87778 12.0981C7.59361 11.8143 7.55696 11.4388 7.77696 11.0908C7.85029 10.9718 7.94195 10.8619 8.05195 10.752C8.95028 9.85465 9.84862 8.95731 10.7561 8.05077V8.06905ZM9.12446 6.0179C9.43612 5.71572 9.86694 5.69743 10.1969 5.98129C10.5269 6.26516 10.582 6.72301 10.3345 7.07097C10.2886 7.12591 10.2428 7.18083 10.2061 7.21746L9.29863 8.12399C8.60196 8.81992 7.90527 9.51587 7.21777 10.2118C7.02528 10.4041 6.81445 10.4957 6.59445 10.4957C6.49362 10.4957 6.38361 10.4682 6.27361 10.4224C5.96194 10.285 5.77863 10.0195 5.77863 9.68068C5.77863 9.46092 5.86112 9.26862 6.02612 9.10379C6.41112 8.72836 6.78694 8.34377 7.16278 7.96834L8.0153 7.11675C8.38197 6.75047 8.75779 6.37501 9.12446 6.00873V6.0179ZM2.24028 5.63332C1.66278 4.80004 1.91028 3.68289 2.44195 3.00528C2.95528 2.35514 3.59697 1.99798 4.34863 1.94304C4.98113 1.89726 5.54944 2.11702 6.07194 2.62981C6.74111 3.27996 7.21778 3.87516 7.59361 4.51614C7.71278 4.7176 7.77694 4.9282 7.85028 5.13881C7.87778 5.23038 7.91445 5.322 7.94195 5.41356C8.00612 5.58755 7.96029 5.75234 7.80446 5.89885L7.78613 5.91719C7.55697 6.14611 7.32779 6.3842 7.08946 6.61312L6.57613 7.12591C6.34696 7.35484 6.11777 7.58376 5.89777 7.81268C5.78777 7.93172 5.65946 7.98667 5.52196 7.98667C5.46696 7.98667 5.39361 7.97748 5.32944 7.95917C4.62361 7.7394 3.98195 7.35481 3.30362 6.75961C2.92778 6.4208 2.53361 6.08203 2.24028 5.65165V5.63332Z" fill="#141515"/>
</g>
<defs>
<clipPath id="clip0_13253_4193">
<rect width="20" height="20" fill="white"/>
</clipPath>
</defs>
</svg>
