<svg width="20" height="20" viewBox="0 0 20 20" fill="none" xmlns="http://www.w3.org/2000/svg">
<path d="M7.23367 8.89934C7.292 8.80768 7.342 8.72435 7.40033 8.64101C7.467 8.54935 7.52533 8.46601 7.59199 8.38268C7.65033 8.29935 7.70866 8.22433 7.75866 8.15766C7.82532 8.08266 7.88366 8.016 7.93366 7.94933C8.08366 7.791 8.217 7.66602 8.317 7.60769L8.37533 7.57432L8.442 7.60769C8.542 7.66602 8.67532 7.791 8.82532 7.94933C8.87532 8.016 8.93367 8.08266 8.992 8.14932C9.05033 8.22432 9.10866 8.29935 9.16699 8.38268C9.23366 8.46601 9.30033 8.55769 9.35867 8.64935C9.417 8.72435 9.46699 8.80766 9.51699 8.88266C9.58366 8.99099 9.65866 9.10768 9.717 9.21601C9.74199 9.25768 9.76699 9.29936 9.79199 9.33269L9.95033 9.62434H11.117C13.3087 9.62434 15.092 7.84099 15.092 5.64932C15.092 3.45766 13.3087 1.66602 11.117 1.66602H5.642C3.45033 1.66602 1.66699 3.44932 1.66699 5.64932C1.66699 7.84932 3.45033 9.62434 5.642 9.62434H6.80866L6.96699 9.33269C6.96699 9.33269 7.01699 9.24934 7.04199 9.20767C7.10866 9.09934 7.167 8.99934 7.23367 8.89934ZM6.93366 7.02434C6.87533 7.09101 6.81699 7.16601 6.75866 7.23268C6.66699 7.33268 6.58367 7.43267 6.492 7.54101C6.45033 7.59934 6.417 7.64935 6.38366 7.70768C6.28366 7.84935 6.18366 7.98268 6.10033 8.12435C6.07533 8.16602 6.042 8.21599 6.00866 8.25766H5.642C4.20866 8.25766 3.03366 7.08266 3.03366 5.64932C3.03366 4.21599 4.20866 3.04099 5.642 3.04099H11.117C12.5503 3.04099 13.717 4.20766 13.717 5.64932C13.717 7.09099 12.5503 8.25766 11.117 8.25766H10.742C10.742 8.25766 10.7003 8.191 10.6753 8.15766C10.617 8.05766 10.542 7.95768 10.4753 7.85768C10.442 7.80768 10.4087 7.74934 10.3753 7.69934C10.3337 7.64101 10.3003 7.59101 10.267 7.54101C10.1503 7.39101 10.0337 7.25767 9.90866 7.12434C9.87533 7.09101 9.85032 7.04934 9.81699 7.016C9.79199 6.991 9.77532 6.95769 9.75032 6.93269L9.70033 6.88269C9.70033 6.88269 9.66699 6.85765 9.65033 6.84098C9.55866 6.75765 9.47533 6.68268 9.38367 6.61602C9.37533 6.60768 9.36699 6.59933 9.35033 6.59099C9.34199 6.59099 9.33366 6.57435 9.32533 6.56602C9.23366 6.50769 9.15033 6.44934 9.05867 6.39934C9.042 6.39101 9.02532 6.38265 9.00866 6.37432C9.00032 6.37432 8.98366 6.36602 8.97533 6.35769C8.892 6.31602 8.80866 6.28269 8.72533 6.25769C8.70033 6.25769 8.68366 6.25768 8.65866 6.24935C8.65032 6.24935 8.64199 6.24935 8.63366 6.24935C8.55033 6.23268 8.46699 6.20769 8.37533 6.20769C8.29199 6.20769 8.20866 6.23268 8.12533 6.24935C8.12533 6.24935 8.117 6.24935 8.10867 6.24935C8.08367 6.24935 8.05866 6.24931 8.03366 6.26598C7.95033 6.29098 7.86699 6.32431 7.78366 6.36598C7.75032 6.38264 7.72533 6.39102 7.692 6.40768C7.60867 6.45768 7.51699 6.51598 7.43366 6.57431C7.41699 6.59098 7.40033 6.59935 7.37533 6.61602C7.37533 6.61602 7.37532 6.61603 7.36699 6.62436C7.27532 6.69103 7.18366 6.77433 7.10033 6.85767C7.08366 6.866 7.07533 6.88265 7.067 6.89098C7.042 6.90765 7.02533 6.92431 7.00866 6.94098C6.98366 6.96598 6.95866 6.99935 6.93366 7.03268V7.02434Z" fill="#141515"/>
<path d="M7.8173 11.241V12.8243C7.8173 15.5826 10.0673 17.8327 12.8256 17.8327C15.584 17.8327 17.8256 15.5826 17.8256 12.8243V1.66602H16.709V12.8243C16.709 14.966 14.9673 16.716 12.8256 16.716C10.684 16.716 8.93396 14.966 8.93396 12.8243V11.241H7.8173Z" fill="#141515"/>
</svg>
