<svg width="24" height="24" viewBox="0 0 24 24" fill="none" xmlns="http://www.w3.org/2000/svg">
<path d="M10.8643 3.29167C10.8643 2.83842 10.9988 2.39535 11.2509 2.01849C11.503 1.64162 11.8613 1.34789 12.2806 1.17444C12.6998 1.00099 13.1611 0.95561 13.6061 1.04403C14.0511 1.13246 14.4599 1.35072 14.7808 1.67121C15.1016 1.99171 15.3201 2.40005 15.4086 2.84459C15.4972 3.28913 15.4517 3.7499 15.2781 4.16865C15.1044 4.5874 14.8104 4.94531 14.4331 5.19712C14.0558 5.44893 13.6123 5.58333 13.1585 5.58333C12.55 5.58333 11.9665 5.34189 11.5363 4.91212C11.106 4.48235 10.8643 3.89946 10.8643 3.29167ZM20.2864 7.41667C20.4044 7.41667 20.5 7.5123 20.5 7.63026V22.7864C20.5 22.9044 20.4044 23 20.2864 23H18.8782C18.7603 23 18.6646 22.9044 18.6646 22.7864V12.2136C18.6646 12.0956 18.569 12 18.451 12H15.4764C15.3955 12 15.3216 11.9543 15.2854 11.882L14.7937 10.8991C14.7025 10.7168 14.432 10.7537 14.393 10.9538L13.8532 13.7241C13.8242 13.8728 13.6541 13.9449 13.5271 13.8623L12.2542 13.0346C12.1812 12.9872 12.1444 12.9001 12.161 12.8147L12.9823 8.60062C13.008 8.46874 12.9077 8.34536 12.7733 8.34441C12.4022 8.34179 11.7289 8.33692 11.4099 8.33461C11.3071 8.33387 11.219 8.40645 11.1993 8.50734L10.2733 13.2577C10.2383 13.437 10.2578 13.6228 10.3293 13.791C10.4007 13.9593 10.5209 14.1023 10.6743 14.2018L14.8965 16.9391C14.9572 16.9785 14.9939 17.0459 14.9939 17.1183V22.7864C14.9939 22.9044 14.8983 23 14.7803 23H13.3721C13.2541 23 13.1585 22.9044 13.1585 22.7864V18.1138C13.1585 18.0414 13.1218 17.974 13.0611 17.9346L9.67589 15.74C9.47162 15.6061 9.2863 15.4459 9.12462 15.2637C9.04804 15.1774 8.91888 15.1578 8.8206 15.2182C8.33009 15.5198 7.76222 15.6762 7.18345 15.6667C5.65184 15.6667 4 14.519 4 12C4 8.91633 6.7861 6.5 10.344 6.5H12.9419C13.4536 6.49815 13.9556 6.63956 14.391 6.90819C14.8263 7.17682 15.1776 7.56193 15.405 8.01983L16.4215 10.0487C16.4577 10.121 16.5316 10.1667 16.6124 10.1667H18.451C18.569 10.1667 18.6646 10.071 18.6646 9.95307V7.63026C18.6646 7.5123 18.7603 7.41667 18.8782 7.41667H20.2864ZM8.50768 12.7159L9.28443 8.7335C9.3133 8.5855 9.18381 8.45535 9.03736 8.4913C7.30887 8.91567 5.83537 10.1594 5.83537 12C5.83537 13.7417 6.95862 13.8333 7.18345 13.8333C7.49897 13.8269 7.8027 13.7124 8.04377 13.509C8.28484 13.3056 8.44862 13.0256 8.50768 12.7159ZM8.6802 17.2773C8.60735 17.2348 8.51794 17.2655 8.50372 17.3486L7.57947 22.7504C7.55715 22.8809 7.65765 23 7.79001 23H9.23291C9.33754 23 9.42677 22.9242 9.44369 22.821L10.169 18.395C10.1828 18.3113 10.1456 18.2274 10.0745 18.1812L8.6802 17.2773Z" fill="#858B8A"/>
</svg>
