<svg width="48" height="54" viewBox="0 0 48 54" fill="none" xmlns="http://www.w3.org/2000/svg">
<g filter="url(#filter0_dd_12684_143570)">
<mask id="path-1-inside-1_12684_143570" fill="white">
<path fill-rule="evenodd" clip-rule="evenodd" d="M24 2.65234C14.0589 2.65234 6 10.7112 6 20.6523C6 29.5689 12.4833 36.9711 20.9929 38.4023L23.0989 42.7794C23.4622 43.5346 24.5378 43.5346 24.9011 42.7794L27.0071 38.4023C35.5167 36.9711 42 29.5689 42 20.6523C42 10.7112 33.9411 2.65234 24 2.65234Z"/>
</mask>
<path fill-rule="evenodd" clip-rule="evenodd" d="M24 2.65234C14.0589 2.65234 6 10.7112 6 20.6523C6 29.5689 12.4833 36.9711 20.9929 38.4023L23.0989 42.7794C23.4622 43.5346 24.5378 43.5346 24.9011 42.7794L27.0071 38.4023C35.5167 36.9711 42 29.5689 42 20.6523C42 10.7112 33.9411 2.65234 24 2.65234Z" fill="#141515"/>
<path d="M20.9929 38.4023L21.8941 37.9687L21.6695 37.502L21.1588 37.4161L20.9929 38.4023ZM23.0989 42.7794L24 42.3458L23.0989 42.7794ZM24.9011 42.7794L24 42.3458L24.9011 42.7794ZM27.0071 38.4023L26.8412 37.4161L26.3305 37.502L26.1059 37.9687L27.0071 38.4023ZM7 20.6523C7 11.2635 14.6112 3.65234 24 3.65234V1.65234C13.5066 1.65234 5 10.1589 5 20.6523H7ZM21.1588 37.4161C13.1226 36.0646 7 29.0725 7 20.6523H5C5 30.0652 11.8439 37.8777 20.8271 39.3884L21.1588 37.4161ZM24 42.3458L21.8941 37.9687L20.0918 38.8358L22.1977 43.2129L24 42.3458ZM24 42.3458L22.1977 43.2129C22.9245 44.7235 25.0755 44.7235 25.8023 43.2129L24 42.3458ZM26.1059 37.9687L24 42.3458L25.8023 43.2129L27.9082 38.8358L26.1059 37.9687ZM41 20.6523C41 29.0725 34.8774 36.0646 26.8412 37.4161L27.1729 39.3884C36.1561 37.8777 43 30.0652 43 20.6523H41ZM24 3.65234C33.3888 3.65234 41 11.2635 41 20.6523H43C43 10.1589 34.4934 1.65234 24 1.65234V3.65234Z" fill="#5A605F" mask="url(#path-1-inside-1_12684_143570)"/>
</g>
<path d="M23.83 14.0103C21.72 14.0103 20 15.7303 20 17.8403C20 19.9503 21.72 21.6702 23.83 21.6702C25.94 21.6702 27.66 19.9503 27.66 17.8403C27.66 15.7303 25.94 14.0103 23.83 14.0103ZM23.83 20.0102C22.63 20.0102 21.66 19.0303 21.66 17.8403C21.66 16.6503 22.64 15.6702 23.83 15.6702C25.02 15.6702 26 16.6503 26 17.8403C26 19.0303 25.02 20.0102 23.83 20.0102Z" fill="#C9EF2C"/>
<path d="M31.6601 17.83C31.6601 13.51 28.1501 10 23.8301 10C19.5101 10 16.0001 13.51 16.0001 17.82C15.9701 24.21 23.0401 29.28 23.3501 29.5C23.6301 29.7 24.0201 29.7 24.3101 29.5C24.6101 29.29 31.6901 24.21 31.6601 17.83ZM23.9401 27.7C23.9401 27.7 23.8701 27.74 23.8301 27.74C23.7901 27.74 23.7501 27.73 23.7201 27.7C21.8901 26.21 17.6301 22.28 17.6601 17.83C17.6601 14.43 20.4301 11.66 23.8301 11.66C27.2301 11.66 30.0001 14.43 30.0001 17.84C30.0201 22.29 25.7701 26.22 23.9401 27.71V27.7Z" fill="#C9EF2C"/>
<defs>
<filter id="filter0_dd_12684_143570" x="0" y="0.652344" width="48" height="52.6934" filterUnits="userSpaceOnUse" color-interpolation-filters="sRGB">
<feFlood flood-opacity="0" result="BackgroundImageFix"/>
<feColorMatrix in="SourceAlpha" type="matrix" values="0 0 0 0 0 0 0 0 0 0 0 0 0 0 0 0 0 0 127 0" result="hardAlpha"/>
<feMorphology radius="2" operator="erode" in="SourceAlpha" result="effect1_dropShadow_12684_143570"/>
<feOffset dy="2"/>
<feGaussianBlur stdDeviation="2"/>
<feComposite in2="hardAlpha" operator="out"/>
<feColorMatrix type="matrix" values="0 0 0 0 0 0 0 0 0 0 0 0 0 0 0 0 0 0 0.06 0"/>
<feBlend mode="normal" in2="BackgroundImageFix" result="effect1_dropShadow_12684_143570"/>
<feColorMatrix in="SourceAlpha" type="matrix" values="0 0 0 0 0 0 0 0 0 0 0 0 0 0 0 0 0 0 127 0" result="hardAlpha"/>
<feMorphology radius="2" operator="erode" in="SourceAlpha" result="effect2_dropShadow_12684_143570"/>
<feOffset dy="4"/>
<feGaussianBlur stdDeviation="4"/>
<feComposite in2="hardAlpha" operator="out"/>
<feColorMatrix type="matrix" values="0 0 0 0 0 0 0 0 0 0 0 0 0 0 0 0 0 0 0.1 0"/>
<feBlend mode="normal" in2="effect1_dropShadow_12684_143570" result="effect2_dropShadow_12684_143570"/>
<feBlend mode="normal" in="SourceGraphic" in2="effect2_dropShadow_12684_143570" result="shape"/>
</filter>
</defs>
</svg>
