<svg width="24" height="24" viewBox="0 0 24 24" fill="none" xmlns="http://www.w3.org/2000/svg">
<path fill-rule="evenodd" clip-rule="evenodd" d="M5.99626 11.5116H8.928C9.059 9.54777 9.74172 7.66538 10.8904 6.07873C8.24989 6.57044 6.21505 8.78485 5.99626 11.5116ZM12 6.23638C10.7801 7.73913 10.0493 9.58045 9.90714 11.5116H14.0929C13.9507 9.58045 13.2199 7.73913 12 6.23638ZM14.0929 12.4884C13.9507 14.4196 13.2199 16.2609 12 17.7636C10.7801 16.2609 10.0493 14.4196 9.90714 12.4884H14.0929ZM8.928 12.4884H5.99626C6.21505 15.2151 8.24989 17.4296 10.8904 17.9213C9.74172 16.3346 9.059 14.4522 8.928 12.4884ZM13.1096 17.9213C14.2583 16.3346 14.941 14.4522 15.072 12.4884H18.0037C17.785 15.2151 15.7501 17.4296 13.1096 17.9213ZM18.0037 11.5116H15.072C14.941 9.54777 14.2583 7.66538 13.1096 6.07873C15.7501 6.57044 17.785 8.78485 18.0037 11.5116ZM5 12C5 8.13401 8.13401 5 12 5C15.866 5 19 8.13401 19 12C19 15.866 15.866 19 12 19C8.13401 19 5 15.866 5 12Z" fill="#6A706F" stroke="#6A706F" stroke-width="0.25" stroke-linecap="round" stroke-linejoin="round"/>
</svg>
