<svg width="24" height="24" viewBox="0 0 24 24" fill="none" xmlns="http://www.w3.org/2000/svg">
<path d="M14.1091 12.2104C13.8197 12.4998 13.4868 12.7241 13.1178 12.8833C12.4522 13.1654 11.6998 13.2089 11.0052 12.999C10.3902 12.8182 9.84032 12.4419 9.44239 11.9355L8.63206 12.4853C8.90699 12.8399 9.23257 13.151 9.60156 13.4042C10.0501 13.7081 10.5421 13.9107 11.0703 14.0192C11.8879 14.1856 12.7271 14.106 13.4941 13.7804C13.9861 13.5706 14.4202 13.2812 14.7964 12.905C14.9266 12.7747 15.0496 12.6373 15.1582 12.4853L14.3478 11.9355C14.2755 12.0295 14.1959 12.1163 14.1163 12.1959L14.1018 12.2104H14.1091Z" fill="#6A706F"/>
<path d="M12.0036 3C8.14005 3 5 6.14005 5 9.99638C5 13.8527 8.14005 17 12.0036 17C15.8672 17 19 13.8599 19 9.99638C19 6.13282 15.8599 3 12.0036 3ZM6.79432 6.98656C7.87235 5.12713 9.86925 3.97674 12.0036 3.97674C14.138 3.97674 16.1276 5.12713 17.2057 6.98656L17.4155 7.34109H6.5845L6.79432 6.98656ZM12.0036 16.0233C8.68269 16.0233 5.97674 13.3173 5.97674 9.99638C5.97674 9.50439 6.04186 8.99793 6.17933 8.49147L6.22274 8.31783H7.17054V9.27287C7.17054 9.59121 7.30078 9.90233 7.52506 10.1338C7.74935 10.3581 8.0677 10.4884 8.38605 10.4884H9.83307C10.1514 10.4884 10.4553 10.3581 10.6868 10.1338C10.9183 9.90233 11.0413 9.59845 11.0413 9.27287V9.04134H12.9587V9.27287C12.9587 9.59121 13.0889 9.90233 13.3132 10.1338C13.5375 10.3581 13.8558 10.4884 14.1742 10.4884H15.6212C15.9395 10.4884 16.2434 10.3581 16.4749 10.1338C16.7065 9.90233 16.8295 9.59845 16.8295 9.27287V8.31783H17.7773L17.8279 8.49147C17.9581 8.99793 18.0233 9.50439 18.0233 9.99638C18.0233 13.3173 15.3245 16.0233 12.0036 16.0233Z" fill="#6A706F"/>
<path d="M14.1091 12.2104C13.8197 12.4998 13.4868 12.7241 13.1178 12.8833C12.4522 13.1654 11.6998 13.2089 11.0052 12.999C10.3902 12.8182 9.84032 12.4419 9.44239 11.9355L8.63206 12.4853C8.90699 12.8399 9.23257 13.151 9.60156 13.4042C10.0501 13.7081 10.5421 13.9107 11.0703 14.0192C11.8879 14.1856 12.7271 14.106 13.4941 13.7804C13.9861 13.5706 14.4202 13.2812 14.7964 12.905C14.9266 12.7747 15.0496 12.6373 15.1582 12.4853L14.3478 11.9355C14.2755 12.0295 14.1959 12.1163 14.1163 12.1959L14.1018 12.2104H14.1091Z" stroke="#6A706F" stroke-width="0.2"/>
<path d="M12.0036 3C8.14005 3 5 6.14005 5 9.99638C5 13.8527 8.14005 17 12.0036 17C15.8672 17 19 13.8599 19 9.99638C19 6.13282 15.8599 3 12.0036 3ZM6.79432 6.98656C7.87235 5.12713 9.86925 3.97674 12.0036 3.97674C14.138 3.97674 16.1276 5.12713 17.2057 6.98656L17.4155 7.34109H6.5845L6.79432 6.98656ZM12.0036 16.0233C8.68269 16.0233 5.97674 13.3173 5.97674 9.99638C5.97674 9.50439 6.04186 8.99793 6.17933 8.49147L6.22274 8.31783H7.17054V9.27287C7.17054 9.59121 7.30078 9.90233 7.52506 10.1338C7.74935 10.3581 8.0677 10.4884 8.38605 10.4884H9.83307C10.1514 10.4884 10.4553 10.3581 10.6868 10.1338C10.9183 9.90233 11.0413 9.59845 11.0413 9.27287V9.04134H12.9587V9.27287C12.9587 9.59121 13.0889 9.90233 13.3132 10.1338C13.5375 10.3581 13.8558 10.4884 14.1742 10.4884H15.6212C15.9395 10.4884 16.2434 10.3581 16.4749 10.1338C16.7065 9.90233 16.8295 9.59845 16.8295 9.27287V8.31783H17.7773L17.8279 8.49147C17.9581 8.99793 18.0233 9.50439 18.0233 9.99638C18.0233 13.3173 15.3245 16.0233 12.0036 16.0233Z" stroke="#6A706F" stroke-width="0.2"/>
</svg>
