<svg width="25" height="24" viewBox="0 0 25 24" fill="none" xmlns="http://www.w3.org/2000/svg">
<path d="M13.9296 13.9902H9.92961C8.10961 13.9902 6.38961 14.7002 5.09961 15.9902C3.80961 17.2802 3.09961 18.9902 3.09961 20.8202V21.6502H4.74962V20.8202C4.74962 19.4602 5.29962 18.1202 6.26962 17.1602C7.24962 16.1802 8.54961 15.6402 9.92961 15.6402H13.9296C15.3096 15.6402 16.6096 16.1802 17.5896 17.1602C18.5496 18.1202 19.1096 19.4602 19.1096 20.8202V21.6502H20.7596V20.8202C20.7596 19.0002 20.0496 17.2802 18.7596 15.9902C17.4696 14.7002 15.7596 13.9902 13.9296 13.9902Z" fill="#AEB2B1"/>
<path d="M7.46924 5.97003C7.09924 6.85003 7.00923 7.82001 7.19923 8.76001C7.38923 9.70001 7.83924 10.55 8.51924 11.23C9.19924 11.91 10.0492 12.36 10.9892 12.55C11.9292 12.74 12.8892 12.64 13.7792 12.28C14.6592 11.91 15.4092 11.3 15.9492 10.5C16.4792 9.71 16.7592 8.78001 16.7592 7.82001C16.7592 6.55001 16.2392 5.31003 15.3492 4.41003C14.4592 3.51003 13.2292 3 11.9392 3C10.9792 3 10.0592 3.28006 9.25923 3.81006C8.45923 4.34006 7.84923 5.09004 7.47923 5.98004L7.46924 5.97003ZM8.80924 7.20001C8.92923 6.58001 9.22923 6.02001 9.67923 5.57001C10.1292 5.12001 10.6892 4.82001 11.3092 4.70001C11.9292 4.58001 12.5592 4.64 13.1392 4.88C13.7192 5.12 14.2192 5.53005 14.5592 6.05005C14.9092 6.57005 15.0992 7.18006 15.0992 7.81006C15.0992 8.66006 14.7692 9.46006 14.1692 10.0601C13.5692 10.6601 12.7692 10.9901 11.9292 10.9901C11.2992 10.9901 10.6892 10.81 10.1692 10.46C9.64924 10.11 9.23924 9.62004 8.99924 9.04004C8.75924 8.46004 8.69923 7.82002 8.81923 7.21002L8.80924 7.20001Z" fill="#AEB2B1"/>
</svg>
