<svg width="25" height="24" viewBox="0 0 25 24" fill="none" xmlns="http://www.w3.org/2000/svg">
<path d="M16.6132 3.20346C16.503 3.20346 16.4259 3.11528 16.4259 3.01612V1H14.608V3.01612C14.608 3.12629 14.5199 3.20346 14.4207 3.20346H10.0138C9.90361 3.20346 9.8265 3.11528 9.8265 3.01612V1H8.00865V3.01612C8.00865 3.12629 7.9205 3.20346 7.82134 3.20346H4.51615C3.4034 3.20346 2.5 4.10683 2.5 5.21958V20.6438C2.5 21.7566 3.4034 22.66 4.51615 22.66H19.9404C21.0531 22.66 21.9565 21.7566 21.9565 20.6438V5.21958C21.9565 4.10683 21.0531 3.20346 19.9404 3.20346H16.6132ZM20.0506 20.776C20.0506 20.776 19.9624 20.8312 19.9184 20.8312H4.49413C4.38396 20.8312 4.30682 20.743 4.30682 20.6438V6.32131C4.30682 6.21114 4.39497 6.13404 4.49413 6.13404H20.5V5.21958C20.5 5.10941 19.9008 5 20 5C19.793 5 20.1056 5.12043 20.1056 5.21958V20.6438C20.1056 20.6438 20.0836 20.743 20.0506 20.776Z" fill="#AEB2B1"/>
<path d="M17.5166 8.71212H6.88487V10.5299H17.5166V8.71212Z" fill="#AEB2B1"/>
<path d="M12.0079 13.119H6.88487V14.9369H12.0079V13.119Z" fill="#AEB2B1"/>
</svg>
