<svg
  width="currentValue"
  height="currentValue"
  viewBox="0 0 19 23"
  fill="none"
  xmlns="http://www.w3.org/2000/svg"
>
  <path
    d="M14.0474 4.67198C13.0103 3.54065 11.9313 2.37789 11.1352 1.11038L10.4229 0L9.76297 1.13133C9.70011 1.23608 8.40118 3.48827 8.40118 5.99186C8.40118 7.13367 8.89352 8.08692 9.3649 9.00875C9.83629 9.94105 10.2867 10.8105 10.2658 11.8894C10.2553 13.0208 9.37538 13.9007 8.27548 13.9007C7.2489 13.9007 6.46325 13.5341 5.86616 12.7694C4.47295 11.0095 4.54627 7.70981 4.80816 6.63086L5.43667 4.01203L3.47779 5.85568C1.39321 7.80409 0 9.74201 0 12.8322C0 17.9127 4.12726 22.04 9.20778 22.04H9.26015C14.3092 22.0086 18.4156 17.8918 18.4156 12.8322C18.4156 9.42776 16.1948 7.00797 14.0474 4.67198ZM9.20778 20.4373C5.01766 20.4373 1.60272 17.0223 1.60272 12.8322C1.60272 11.3238 1.9903 10.1191 2.8388 8.92494L3.05878 8.62116L3.07973 8.99827C3.15306 10.381 3.47779 12.3399 4.59865 13.7645C5.49952 14.9063 6.76703 15.5034 8.27548 15.5034C10.2344 15.5034 11.8475 13.8902 11.879 11.9104C11.8894 10.4334 11.3133 9.29158 10.7895 8.27548C10.3705 7.4584 10.0039 6.74608 10.0039 5.99186C10.0039 5.18527 10.182 4.30534 10.5172 3.36257L10.5905 3.14259L10.7372 3.33114C11.3971 4.16916 12.1304 4.96528 12.8322 5.72998L12.8636 5.76141C14.8854 7.97169 16.8024 10.0563 16.8024 12.8322C16.8024 17.0223 13.3979 20.4373 9.20778 20.4373Z"
    fill="#1E6803"
  />
</svg>
