<svg width="24" height="24" viewBox="0 0 24 24" fill="none" xmlns="http://www.w3.org/2000/svg">
<path d="M11.9999 6.46943C10.1136 6.46943 8.57595 7.95747 8.57595 9.78291C8.57595 11.6084 10.1136 13.0964 11.9999 13.0964C13.8862 13.0964 15.4239 11.6084 15.4239 9.78291C15.4239 7.95747 13.8862 6.46943 11.9999 6.46943ZM11.9999 11.6603C10.9271 11.6603 10.06 10.8124 10.06 9.78291C10.06 8.7534 10.9361 7.90555 11.9999 7.90555C13.0638 7.90555 13.9399 8.7534 13.9399 9.78291C13.9399 10.8124 13.0638 11.6603 11.9999 11.6603Z" fill="#6A706F"/>
<path d="M18.9999 9.77404C18.9999 6.03664 15.862 3 12 3C8.13798 3 5.00009 6.03665 5.00009 9.7654C4.97327 15.2936 11.2937 19.6799 11.5709 19.8702C11.8212 20.0433 12.1699 20.0433 12.4291 19.8702C12.6973 19.6886 19.0267 15.2936 18.9999 9.77404ZM12.0983 18.313C12.0983 18.313 12.0358 18.3476 12 18.3476C11.9642 18.3476 11.9285 18.3389 11.9017 18.313C10.2657 17.0239 6.45729 13.6239 6.48411 9.77404C6.48411 6.83257 8.96045 4.43613 12 4.43613C15.0396 4.43613 17.5159 6.83258 17.5159 9.7827C17.5338 13.6326 13.7343 17.0326 12.0983 18.3216V18.313Z" fill="#6A706F"/>
</svg>
