<svg width="24" height="24" viewBox="0 0 24 24" fill="none" xmlns="http://www.w3.org/2000/svg">
<path d="M10.6967 11.6247L12.712 9.50146L14.2217 11.092C14.4638 11.3471 14.7985 11.4972 15.1403 11.4972H17.5686V10.2592H15.0905L12.4129 7.43822C12.356 7.37819 12.2919 7.33316 12.2207 7.30315C12.0782 7.24313 11.9145 7.24313 11.772 7.30315C11.7008 7.33316 11.6368 7.37819 11.5798 7.43822L9.23694 9.90658C8.99483 10.1617 8.85955 10.5068 8.85955 10.8744C8.85955 11.2421 8.99483 11.5872 9.23694 11.8423L11.4089 14.1306V17.4918H12.5838V14.1831C12.5838 13.823 12.4414 13.4704 12.2065 13.2153L10.6967 11.6247Z" fill="#6A706F"/>
<path d="M14.8484 7.74596C15.5681 7.74596 16.1516 7.13127 16.1516 6.37298C16.1516 5.6147 15.5681 5 14.8484 5C14.1287 5 13.5453 5.6147 13.5453 6.37298C13.5453 7.13127 14.1287 7.74596 14.8484 7.74596Z" fill="#6A706F"/>
<path d="M19 16.1265C19 14.5434 17.7752 13.253 16.2726 13.253C14.7701 13.253 13.5453 14.5434 13.5453 16.1265C13.5453 17.7095 14.7701 19 16.2726 19C17.7752 19 19 17.7095 19 16.1265ZM16.2726 17.7546C15.4181 17.7546 14.7274 17.0193 14.7274 16.1265C14.7274 15.2337 15.4252 14.4984 16.2726 14.4984C17.12 14.4984 17.8179 15.2337 17.8179 16.1265C17.8179 17.0193 17.12 17.7546 16.2726 17.7546Z" fill="#6A706F"/>
<path d="M10.4547 16.1265C10.4547 14.5434 9.22991 13.253 7.72737 13.253C6.22483 13.253 5 14.5434 5 16.1265C5 17.7095 6.22483 19 7.72737 19C9.22991 19 10.4547 17.7095 10.4547 16.1265ZM7.72737 17.7546C6.87285 17.7546 6.18212 17.0193 6.18212 16.1265C6.18212 15.2337 6.87997 14.4984 7.72737 14.4984C8.57478 14.4984 9.27263 15.2337 9.27263 16.1265C9.27263 17.0193 8.57478 17.7546 7.72737 17.7546Z" fill="#6A706F"/>
<path d="M10.6967 11.6247L12.712 9.50146L14.2217 11.092C14.4638 11.3471 14.7985 11.4972 15.1403 11.4972H17.5686V10.2592H15.0905L12.4129 7.43822C12.356 7.37819 12.2919 7.33316 12.2207 7.30315C12.0782 7.24313 11.9145 7.24313 11.772 7.30315C11.7008 7.33316 11.6368 7.37819 11.5798 7.43822L9.23694 9.90658C8.99483 10.1617 8.85955 10.5068 8.85955 10.8744C8.85955 11.2421 8.99483 11.5872 9.23694 11.8423L11.4089 14.1306V17.4918H12.5838V14.1831C12.5838 13.823 12.4414 13.4704 12.2065 13.2153L10.6967 11.6247Z" stroke="#6A706F" stroke-width="0.2"/>
<path d="M14.8484 7.74596C15.5681 7.74596 16.1516 7.13127 16.1516 6.37298C16.1516 5.6147 15.5681 5 14.8484 5C14.1287 5 13.5453 5.6147 13.5453 6.37298C13.5453 7.13127 14.1287 7.74596 14.8484 7.74596Z" stroke="#6A706F" stroke-width="0.2"/>
<path d="M19 16.1265C19 14.5434 17.7752 13.253 16.2726 13.253C14.7701 13.253 13.5453 14.5434 13.5453 16.1265C13.5453 17.7095 14.7701 19 16.2726 19C17.7752 19 19 17.7095 19 16.1265ZM16.2726 17.7546C15.4181 17.7546 14.7274 17.0193 14.7274 16.1265C14.7274 15.2337 15.4252 14.4984 16.2726 14.4984C17.12 14.4984 17.8179 15.2337 17.8179 16.1265C17.8179 17.0193 17.12 17.7546 16.2726 17.7546Z" stroke="#6A706F" stroke-width="0.2"/>
<path d="M10.4547 16.1265C10.4547 14.5434 9.22991 13.253 7.72737 13.253C6.22483 13.253 5 14.5434 5 16.1265C5 17.7095 6.22483 19 7.72737 19C9.22991 19 10.4547 17.7095 10.4547 16.1265ZM7.72737 17.7546C6.87285 17.7546 6.18212 17.0193 6.18212 16.1265C6.18212 15.2337 6.87997 14.4984 7.72737 14.4984C8.57478 14.4984 9.27263 15.2337 9.27263 16.1265C9.27263 17.0193 8.57478 17.7546 7.72737 17.7546Z" stroke="#6A706F" stroke-width="0.2"/>
</svg>
