<svg width="24" height="24" viewBox="0 0 24 24" fill="none" xmlns="http://www.w3.org/2000/svg">
<path d="M17.7732 8.04348H15.5V6.29348C15.5 5.57826 14.8433 5 14.1649 5H9.83505C9.16392 5 8.5 5.57826 8.5 6.29348V8.04348H6.2268C5.55567 8.04348 5 8.62174 5 9.33696V17.7065C5 18.4217 5.55567 19 6.2268 19H17.7732C18.4515 19 19 18.4217 19 17.7065V9.33696C19 8.62174 18.4515 8.04348 17.7732 8.04348ZM8.5 17.7065H6.2268V9.30769H8.5L8.5 17.7065ZM9.72178 6.18185H14.2975L14.2975 8.04348H9.72178L9.72178 6.18185ZM14.2975 17.7065H9.72178V9.30769H14.2975L14.2975 17.7065ZM17.7732 17.7065H15.5L15.5 9.30769H17.7732V17.7065Z" fill="#6A706F" stroke="#6A706F" stroke-width="0.1"/>
</svg>
