<svg width="24" height="24" viewBox="0 0 24 23" fill="none" xmlns="http://www.w3.org/2000/svg">
<path d="M17.5564 18C17.9371 18 18.3099 17.8474 18.5796 17.588C18.8493 17.3286 19 16.97 19 16.6038V9.73702C19 9.65309 18.9841 9.56918 18.9524 9.49289C18.9207 9.41659 18.8731 9.34791 18.8096 9.28687L12.464 3.18311C12.345 3.06866 12.1785 3 12.004 3C11.8295 3 11.6629 3.06866 11.5439 3.18311L5.1983 9.28687C5.13484 9.34791 5.08725 9.41659 5.05552 9.49289C5.02379 9.56918 5.00793 9.65309 5 9.73702V16.6038C5 16.97 5.15864 17.3286 5.4204 17.588C5.69008 17.8474 6.06288 18 6.44362 18H17.5564ZM13.7331 16.7411H10.2827V12.6592H13.7331V16.7411ZM6.31672 10.0041L12.004 4.53358L17.6912 10.0041V16.7487H15.034V12.8042C15.034 12.4379 14.8754 12.0793 14.6136 11.8199C14.3439 11.5605 13.9711 11.4079 13.5904 11.4079H10.4176C10.0368 11.4079 9.66402 11.5605 9.39433 11.8199C9.12464 12.0793 8.97393 12.4379 8.97393 12.8042V16.7487H6.31672V10.0041Z" fill="#6A706F" stroke="#6A706F" stroke-width="0.1"/>
</svg>
