<svg width="20" height="20" viewBox="0 0 20 20" fill="#C9EF2C" xmlns="http://www.w3.org/2000/svg">
<path d="M5.83661 7.79712L9.85842 2.50744L8.75374 1.66602L4.53486 7.21555H1.67324V14.1638H5.83661V7.79712ZM4.44882 12.7741H3.06103V8.60519H4.44882V12.7741ZM14.1634 14.1638H18.3267V7.21555H15.4651L11.2462 1.66602L10.1415 2.50744L14.1634 7.79712V14.1638ZM15.5511 8.60519H16.9389V12.7741H15.5511V8.60519ZM18.3337 17.3815C17.8063 17.986 17.0458 18.3327 16.245 18.3327C15.4117 18.3327 14.6727 17.9561 14.1634 17.3724C13.654 17.9561 12.915 18.3327 12.0817 18.3327C11.2483 18.3327 10.5093 17.9561 9.99998 17.3724C9.49066 17.9561 8.75097 18.3327 7.91829 18.3327C7.08562 18.3327 6.34593 17.9561 5.83661 17.3724C5.32729 17.9561 4.5876 18.3327 3.75492 18.3327C2.95486 18.3327 2.19366 17.986 1.66699 17.3822L2.712 16.4678C2.97568 16.7707 3.35593 16.9437 3.75492 16.9437C4.52029 16.9437 5.14271 16.3205 5.14271 15.5541H6.5305C6.5305 16.3205 7.15293 16.9437 7.91829 16.9437C8.68366 16.9437 9.30608 16.3205 9.30608 15.5541H10.6939C10.6939 16.3205 11.3163 16.9437 12.0817 16.9437C12.847 16.9437 13.4695 16.3205 13.4695 15.5541H14.8572C14.8572 16.3205 15.4797 16.9437 16.245 16.9437C16.644 16.9437 17.0243 16.7707 17.2873 16.4685L18.3337 17.3815Z" fill="#C9EF2C"/>
</svg>
