<svg width="20" height="20" viewBox="0 0 20 20" fill="none" xmlns="http://www.w3.org/2000/svg">
<path d="M17.3337 17.3649C17.792 16.9065 18.067 16.2982 18.1087 15.6482C18.1087 15.6232 18.1003 15.6065 18.092 15.5982C18.0753 15.5815 18.0587 15.5732 18.0337 15.5732H17.017C16.967 15.5732 16.9337 15.6148 16.9253 15.6648C16.8837 15.9898 16.7337 16.2898 16.5003 16.5232C16.2253 16.7982 15.842 16.9565 15.442 16.9565H12.8503C12.692 16.9565 12.5587 16.8232 12.5587 16.6648V14.2565C12.5587 14.0982 12.692 13.9648 12.8503 13.9648H16.6503C16.692 13.9648 16.7337 13.9315 16.7337 13.8815V11.3565C16.7337 10.4232 16.4003 9.50648 15.8087 8.78148C15.217 8.05648 14.3837 7.55648 13.467 7.37315L10.7753 6.83151C10.467 6.77318 10.192 6.61482 9.97533 6.38982C9.75866 6.15649 9.62533 5.87316 9.58366 5.56483L9.30033 3.36482C9.25866 3.08982 9.167 2.8315 9.017 2.59816C8.867 2.36483 8.67534 2.16486 8.45034 2.00653C8.22534 1.8482 7.967 1.74815 7.692 1.69815C7.42533 1.64815 7.14199 1.65651 6.87533 1.72317L1.72533 3.18151C1.72533 3.18151 1.66699 3.2232 1.66699 3.25653V13.8732C1.66699 13.9149 1.70033 13.9565 1.75033 13.9565H4.85033C5.00867 13.9565 5.142 14.0898 5.142 14.2481V16.6565C5.142 16.8148 5.00867 16.9482 4.85033 16.9482H1.75033C1.70866 16.9482 1.66699 16.9815 1.66699 17.0315V18.0482C1.66699 18.0899 1.70033 18.1315 1.75033 18.1315H15.4587C16.1753 18.1315 16.842 17.8565 17.3503 17.3482L17.3337 17.3649ZM3.12533 12.8065C2.96699 12.8065 2.83367 12.6732 2.83367 12.5148V4.33985C2.83367 4.21485 2.917 4.09817 3.042 4.06484L7.15033 2.89815C7.25866 2.87315 7.37533 2.87315 7.48367 2.89815C7.592 2.92315 7.692 2.96484 7.78367 3.02317C7.87534 3.0815 7.95033 3.16486 8.00866 3.25653C8.06699 3.3482 8.10866 3.44819 8.12533 3.56486L8.20034 4.15649C8.20867 4.23983 8.18367 4.32318 8.13367 4.38151C8.07533 4.44818 8.00033 4.4815 7.91699 4.4815H6.60034C6.55867 4.4815 6.517 4.51482 6.517 4.56482V5.58151C6.517 5.62318 6.55034 5.66482 6.60034 5.66482H8.15034C8.292 5.66482 8.40866 5.76486 8.442 5.90652C8.45866 6.00652 8.492 6.11486 8.52533 6.22319C8.567 6.35653 8.52533 6.49818 8.40033 6.57318L7.067 7.38149C7.067 7.38149 7.03366 7.41482 7.03366 7.43149C7.03366 7.45649 7.03367 7.47316 7.042 7.48983L7.57534 8.36482C7.57534 8.36482 7.65033 8.41484 7.68366 8.38984L9.12534 7.51485C9.22534 7.44818 9.35866 7.45648 9.45866 7.53148C9.55033 7.59815 9.642 7.66485 9.75034 7.72318C9.82534 7.76485 9.87533 7.83149 9.90033 7.90649C9.92533 7.98149 9.90866 8.06484 9.87533 8.13151L9.13366 9.39819C9.13366 9.39819 9.117 9.43981 9.12534 9.45648C9.12534 9.47315 9.142 9.4982 9.15866 9.50653L10.0337 10.0232C10.0337 10.0232 10.0753 10.0398 10.092 10.0315C10.117 10.0315 10.1337 10.0148 10.142 9.99817L11.117 8.33984C11.1837 8.23151 11.3003 8.18152 11.4253 8.19819L13.2337 8.55652C13.8837 8.68985 14.4753 9.03986 14.9003 9.55653C15.3253 10.0732 15.5503 10.7232 15.5587 11.3815V12.5148C15.5587 12.6732 15.4253 12.8065 15.267 12.8065H3.12533ZM11.3753 16.6815C11.3753 16.8398 11.242 16.9732 11.0837 16.9732H6.592C6.43366 16.9732 6.30034 16.8398 6.30034 16.6815V14.2732C6.30034 14.1148 6.43366 13.9815 6.592 13.9815H11.0837C11.242 13.9815 11.3753 14.1148 11.3753 14.2732V16.6815Z" fill="#141515"/>
</svg>
