<svg width="24" height="24" viewBox="0 0 24 24" fill="none" xmlns="http://www.w3.org/2000/svg">
<path d="M21.2721 2.732C21.0128 2.47015 20.6983 2.26964 20.3516 2.14517C20.0049 2.0207 19.6348 1.97541 19.2684 2.01263C17.3715 2.19728 12.5777 3.01524 9.03034 6.56279C5.95891 9.64039 3.61438 13.3667 2.16854 17.4686L2.01377 17.8577C1.98508 17.9299 2.00204 18.0122 2.05692 18.0671L5.92986 21.943C5.98449 21.9976 6.06631 22.0148 6.13829 21.9866L6.52823 21.8341C10.63 20.3918 14.3582 18.0511 17.4408 14.983C20.9874 11.4338 21.803 6.63548 21.9875 4.73721C22.0244 4.37079 21.9793 4.00076 21.8555 3.65393C21.7318 3.30711 21.5325 2.99219 21.2721 2.732ZM16.2628 13.8016C13.5142 16.5608 10.1987 18.6877 6.54696 20.0352C6.47603 20.0614 6.39639 20.0437 6.34295 19.9902L5.91255 19.5595C5.83667 19.4836 5.83667 19.3605 5.91255 19.2846L15.7773 9.41231C15.8532 9.33637 15.8532 9.2133 15.7773 9.13736L14.8718 8.23112C14.7958 8.15509 14.6726 8.15509 14.5966 8.23112L4.73226 18.1029C4.65629 18.179 4.53306 18.179 4.45709 18.1029L4.01467 17.6602C3.96108 17.6066 3.94349 17.5266 3.97001 17.4556C5.33122 13.809 7.45934 10.4971 10.2108 7.74419C13.3767 4.57679 17.713 3.84322 19.4312 3.67528C19.5519 3.66416 19.6737 3.67972 19.7878 3.72087C19.9019 3.76201 20.0056 3.82774 20.0915 3.9134C20.1784 3.99868 20.2451 4.10223 20.287 4.21654C20.3289 4.33085 20.3448 4.45305 20.3337 4.57429C20.1617 6.29375 19.4278 10.6342 16.2628 13.8016Z" fill="#858B8A"/>
</svg>
